<svg version="1.1" viewBox="0.0 0.0 600.0 371.0" fill="none" stroke="none" stroke-linecap="square" stroke-miterlimit="10" width="600" height="371" xmlns:xlink="http://www.w3.org/1999/xlink" xmlns="http://www.w3.org/2000/svg"><path fill="#ffffff" d="M0 0L600.0 0L600.0 371.0L0 371.0L0 0Z" fill-rule="nonzero"/><path fill="#000000" fill-opacity="0.0" d="M18.55 18.55L581.45 18.55L581.45 352.44998L18.55 352.44998L18.55 18.55Z" fill-rule="nonzero"/><path fill="#202124" d="M101.56563 237.245L81.97188 237.245L81.97188 112.463745Q74.90938 119.19812 63.425 125.94812Q51.95625 132.69812 42.815624 136.07312L42.815624 117.13562Q59.2375 109.41687 71.53438 98.432495Q83.83125 87.432495 88.94063 77.10437L101.56563 77.10437L101.56563 237.245ZM214.56563 237.245L214.56563 199.0575L145.37813 199.0575L145.37813 181.10437L218.15938 77.744995L234.15938 77.744995L234.15938 181.10437L255.69063 181.10437L255.69063 199.0575L234.15938 199.0575L234.15938 237.245L214.56563 237.245ZM214.56563 181.10437L214.56563 109.19812L164.62813 181.10437L214.56563 181.10437ZM305.9406 150.76062Q293.7531 146.29187 287.8781 138.02625Q282.0031 129.76062 282.0031 118.22937Q282.0031 100.82312 294.5031 88.963745Q307.01874 77.10437 327.8 77.10437Q348.6906 77.10437 361.40936 89.22937Q374.14374 101.35437 374.14374 118.76062Q374.14374 129.87 368.3156 138.08875Q362.5031 146.29187 350.64374 150.76062Q365.33124 155.54187 373.0031 166.21375Q380.675 176.87 380.675 191.66687Q380.675 212.12 366.20624 226.04187Q351.7375 239.96375 328.1281 239.96375Q304.51874 239.96375 290.05 225.995Q275.58124 212.01062 275.58124 191.12Q275.58124 175.5575 283.47186 165.0575Q291.3625 154.5575 305.9406 150.76062ZM302.01874 117.57312Q302.01874 128.88562 309.3 136.07312Q316.59686 143.245 328.2375 143.245Q339.55 143.245 346.78436 136.12Q354.01874 128.995 354.01874 118.651245Q354.01874 107.88562 346.5656 100.54187Q339.1125 93.19812 328.01874 93.19812Q316.8156 93.19812 309.40936 100.38562Q302.01874 107.557495 302.01874 117.57312ZM295.70624 191.22937Q295.70624 199.60437 299.675 207.4325Q303.64374 215.26062 311.47186 219.57312Q319.3156 223.87 328.34686 223.87Q342.3781 223.87 351.51874 214.83875Q360.65936 205.8075 360.65936 191.87Q360.65936 177.72937 351.2375 168.495Q341.83124 159.245 327.6906 159.245Q313.8781 159.245 304.78436 168.38562Q295.70624 177.51062 295.70624 191.22937ZM462.5656 237.245L462.5656 199.0575L393.3781 199.0575L393.3781 181.10437L466.15936 77.744995L482.15936 77.744995L482.15936 181.10437L503.6906 181.10437L503.6906 199.0575L482.15936 199.0575L482.15936 237.245L462.5656 237.245ZM462.5656 181.10437L462.5656 109.19812L412.6281 181.10437L462.5656 181.10437Z" fill-rule="nonzero"/></svg>